# xmcd CD database file
#
# Track frame offsets:
#	150
#	17247
#	36010
#	51991
#	76920
#	94563
#	116913
#	130352
#	140665
#	158957
#	171407
#
# Disc length: 2636 seconds
#
# Revision: 1
# Processed by: cddbd v1.5.2PL0 Copyright (c) Steve Scherf et al.
# Submitted via: CDex 1.51
#
DISCID=970a4a0b
DTITLE=Krakatoa - Patagonia
DYEAR=2012
DGENRE=Jazz
TTITLE0=Krakatoa - Infinie
TTITLE1=Krakatoa - Patagonia
TTITLE2=Krakatoa - Bronx
TTITLE3=Krakatoa - Appalache
TTITLE4=Krakatoa - 3AM
TTITLE5=Krakatoa - Mokushiroku
TTITLE6=Krakatoa - Atlantique
TTITLE7=Krakatoa - Anniversaire 19
TTITLE8=Krakatoa - Up to You
TTITLE9=Krakatoa - Eleven Bullets
TTITLE10=Krakatoa - Belvedere
EXTD=YEAR: 2012
EXTT0=
EXTT1=
EXTT2=
EXTT3=
EXTT4=
EXTT5=
EXTT6=
EXTT7=
EXTT8=
EXTT9=
EXTT10=
PLAYORDER=
